<svg width="24" height="24" viewBox="0 0 24 24" fill="none" xmlns="http://www.w3.org/2000/svg">
  <path
    d="M12 2C6.48 2 2 6.58 2 12.22C2 16.73 4.87 20.56 8.84 21.91C9.34 22 9.52 21.69 9.52 21.43C9.52 21.19 9.51 20.41 9.5 19.58C6.73 20.2 6.14 18.37 6.14 18.37C5.68 17.16 5.03 16.84 5.03 16.84C4.12 16.2 5.1 16.22 5.1 16.22C6.1 16.29 6.63 17.28 6.63 17.28C7.52 18.84 8.97 18.39 9.54 18.12C9.63 17.45 9.89 16.99 10.18 16.73C7.97 16.47 5.65 15.58 5.65 11.62C5.65 10.49 6.04 9.57 6.68 8.86C6.58 8.6 6.23 7.55 6.78 6.13C6.78 6.13 7.62 5.85 9.53 7.18C10.33 6.95 11.19 6.83 12.05 6.83C12.91 6.83 13.77 6.95 14.57 7.18C16.48 5.85 17.32 6.13 17.32 6.13C17.87 7.55 17.52 8.6 17.42 8.86C18.06 9.57 18.45 10.49 18.45 11.62C18.45 15.59 16.12 16.47 13.9 16.73C14.26 17.05 14.58 17.67 14.58 18.63C14.58 20 14.57 21.09 14.57 21.43C14.57 21.69 14.75 22 15.26 21.91C19.23 20.56 22.1 16.73 22.1 12.22C22.1 6.58 17.62 2 12 2Z"
    fill="currentColor"
  />
</svg>
